<?xml version="1.0" encoding="UTF-8" standalone="no"?><svg xmlns="http://www.w3.org/2000/svg" xmlns:xlink="http://www.w3.org/1999/xlink" clip-rule="evenodd" stroke-miterlimit="10" viewBox="0 0 1024 768"><desc>SVG generated by Keynote</desc><defs></defs><g transform="matrix(1.00, 0.00, -0.00, -1.00, 0.0, 768.0)"><path d="M 0.0 768.0 L 1024.0 768.0 L 1024.0 0.0 L 0.0 0.0 Z M 0.0 768.0 " fill="#FEFFFE"></path><text xml:space="preserve" font-family="LucidaGrande-Bold,Lucida Grande" font-weight="bold" font-size="23.5" fill="#646363" transform="matrix(1.00, 0.00, -0.00, -1.00, 60.9, 484.0)">‣</text><text xml:space="preserve" font-family="Avenir-Medium,Avenir" font-size="24.0" fill="#000000" transform="matrix(1.00, 0.00, -0.00, -1.00, 85.7, 484.3)">A</text><text xml:space="preserve" font-family="Avenir-Medium,Avenir" font-size="24.0" fill="#000000" transform="matrix(1.00, 0.00, -0.00, -1.00, 106.5, 484.3)">P</text><text xml:space="preserve" font-family="Avenir-Medium,Avenir" font-size="24.0" fill="#000000" transform="matrix(1.00, 0.00, -0.00, -1.00, 124.5, 484.3)">I</text><text xml:space="preserve" font-family="Avenir-Medium,Avenir" font-size="24.0" fill="#000000" transform="matrix(1.00, 0.00, -0.00, -1.00, 135.1, 484.3)"> </text><text xml:space="preserve" font-family="Avenir-Medium,Avenir" font-size="24.0" fill="#000000" transform="matrix(1.00, 0.00, -0.00, -1.00, 145.6, 484.3)">T</text><text xml:space="preserve" font-family="Avenir-Medium,Avenir" font-size="24.0" fill="#000000" transform="matrix(1.00, 0.00, -0.00, -1.00, 163.2, 484.3)">W</text><text xml:space="preserve" font-family="Avenir-Medium,Avenir" font-size="24.0" fill="#000000" transform="matrix(1.00, 0.00, -0.00, -1.00, 190.1, 484.3)">I</text><text xml:space="preserve" font-family="Avenir-Medium,Avenir" font-size="24.0" fill="#000000" transform="matrix(1.00, 0.00, -0.00, -1.00, 200.6, 484.3)">T</text><text xml:space="preserve" font-family="Avenir-Medium,Avenir" font-size="24.0" fill="#000000" transform="matrix(1.00, 0.00, -0.00, -1.00, 218.2, 484.3)">T</text><text xml:space="preserve" font-family="Avenir-Medium,Avenir" font-size="24.0" fill="#000000" transform="matrix(1.00, 0.00, -0.00, -1.00, 235.9, 484.3)">E</text><text xml:space="preserve" font-family="Avenir-Medium,Avenir" font-size="24.0" fill="#000000" transform="matrix(1.00, 0.00, -0.00, -1.00, 254.4, 484.3)">R</text><text xml:space="preserve" font-family="Avenir-Medium,Avenir" font-size="24.0" fill="#000000" transform="matrix(1.00, 0.00, -0.00, -1.00, 272.9, 484.3)"> </text><text xml:space="preserve" font-family="LucidaGrande-Bold,Lucida Grande" font-weight="bold" font-size="23.5" fill="#646363" transform="matrix(1.00, 0.00, -0.00, -1.00, 60.9, 451.0)">‣</text><text xml:space="preserve" font-family="Avenir-Medium,Avenir" font-size="24.0" fill="#000000" transform="matrix(1.00, 0.00, -0.00, -1.00, 85.7, 451.3)">A</text><text xml:space="preserve" font-family="Avenir-Medium,Avenir" font-size="24.0" fill="#000000" transform="matrix(1.00, 0.00, -0.00, -1.00, 106.5, 451.3)">P</text><text xml:space="preserve" font-family="Avenir-Medium,Avenir" font-size="24.0" fill="#000000" transform="matrix(1.00, 0.00, -0.00, -1.00, 124.5, 451.3)">I</text><text xml:space="preserve" font-family="Avenir-Medium,Avenir" font-size="24.0" fill="#000000" transform="matrix(1.00, 0.00, -0.00, -1.00, 135.1, 451.3)"> </text><text xml:space="preserve" font-family="Avenir-Medium,Avenir" font-size="24.0" fill="#000000" transform="matrix(1.00, 0.00, -0.00, -1.00, 145.6, 451.3)">T</text><text xml:space="preserve" font-family="Avenir-Medium,Avenir" font-size="24.0" fill="#000000" transform="matrix(1.00, 0.00, -0.00, -1.00, 163.2, 451.3)">I</text><text xml:space="preserve" font-family="Avenir-Medium,Avenir" font-size="24.0" fill="#000000" transform="matrix(1.00, 0.00, -0.00, -1.00, 173.7, 451.3)">V</text><text xml:space="preserve" font-family="Avenir-Medium,Avenir" font-size="24.0" fill="#000000" transform="matrix(1.00, 0.00, -0.00, -1.00, 192.7, 451.3)">I</text><text xml:space="preserve" font-family="Avenir-Medium,Avenir" font-size="24.0" fill="#000000" transform="matrix(1.00, 0.00, -0.00, -1.00, 203.2, 451.3)">N</text><text xml:space="preserve" font-family="Avenir-Medium,Avenir" font-size="24.0" fill="#000000" transform="matrix(1.00, 0.00, -0.00, -1.00, 226.1, 451.3)">E</text><text xml:space="preserve" font-family="Avenir-Medium,Avenir" font-size="24.0" fill="#000000" transform="matrix(1.00, 0.00, -0.00, -1.00, 244.6, 451.3)"> </text><text xml:space="preserve" font-family="LucidaGrande-Bold,Lucida Grande" font-weight="bold" font-size="23.5" fill="#646363" transform="matrix(1.00, 0.00, -0.00, -1.00, 60.9, 418.0)">‣</text><text xml:space="preserve" font-family="Avenir-Medium,Avenir" font-size="24.0" fill="#000000" transform="matrix(1.00, 0.00, -0.00, -1.00, 85.7, 418.3)">D</text><text xml:space="preserve" font-family="Avenir-Medium,Avenir" font-size="24.0" fill="#000000" transform="matrix(1.00, 0.00, -0.00, -1.00, 107.4, 418.3)">É</text><text xml:space="preserve" font-family="Avenir-Medium,Avenir" font-size="24.0" fill="#000000" transform="matrix(1.00, 0.00, -0.00, -1.00, 125.9, 418.3)">T</text><text xml:space="preserve" font-family="Avenir-Medium,Avenir" font-size="24.0" fill="#000000" transform="matrix(1.00, 0.00, -0.00, -1.00, 143.5, 418.3)">E</text><text xml:space="preserve" font-family="Avenir-Medium,Avenir" font-size="24.0" fill="#000000" transform="matrix(1.00, 0.00, -0.00, -1.00, 162.0, 418.3)">C</text><text xml:space="preserve" font-family="Avenir-Medium,Avenir" font-size="24.0" fill="#000000" transform="matrix(1.00, 0.00, -0.00, -1.00, 182.7, 418.3)">T</text><text xml:space="preserve" font-family="Avenir-Medium,Avenir" font-size="24.0" fill="#000000" transform="matrix(1.00, 0.00, -0.00, -1.00, 200.3, 418.3)">I</text><text xml:space="preserve" font-family="Avenir-Medium,Avenir" font-size="24.0" fill="#000000" transform="matrix(1.00, 0.00, -0.00, -1.00, 210.9, 418.3)">O</text><text xml:space="preserve" font-family="Avenir-Medium,Avenir" font-size="24.0" fill="#000000" transform="matrix(1.00, 0.00, -0.00, -1.00, 234.7, 418.3)">N</text><text xml:space="preserve" font-family="Avenir-Medium,Avenir" font-size="24.0" fill="#000000" transform="matrix(1.00, 0.00, -0.00, -1.00, 257.6, 418.3)"> </text><text xml:space="preserve" font-family="Avenir-Medium,Avenir" font-size="24.0" fill="#000000" transform="matrix(1.00, 0.00, -0.00, -1.00, 268.1, 418.3)">S</text><text xml:space="preserve" font-family="Avenir-Medium,Avenir" font-size="24.0" fill="#000000" transform="matrix(1.00, 0.00, -0.00, -1.00, 285.3, 418.3)">É</text><text xml:space="preserve" font-family="Avenir-Medium,Avenir" font-size="24.0" fill="#000000" transform="matrix(1.00, 0.00, -0.00, -1.00, 303.8, 418.3)">M</text><text xml:space="preserve" font-family="Avenir-Medium,Avenir" font-size="24.0" fill="#000000" transform="matrix(1.00, 0.00, -0.00, -1.00, 329.4, 418.3)">A</text><text xml:space="preserve" font-family="Avenir-Medium,Avenir" font-size="24.0" fill="#000000" transform="matrix(1.00, 0.00, -0.00, -1.00, 350.1, 418.3)">N</text><text xml:space="preserve" font-family="Avenir-Medium,Avenir" font-size="24.0" fill="#000000" transform="matrix(1.00, 0.00, -0.00, -1.00, 373.1, 418.3)">T</text><text xml:space="preserve" font-family="Avenir-Medium,Avenir" font-size="24.0" fill="#000000" transform="matrix(1.00, 0.00, -0.00, -1.00, 390.7, 418.3)">I</text><text xml:space="preserve" font-family="Avenir-Medium,Avenir" font-size="24.0" fill="#000000" transform="matrix(1.00, 0.00, -0.00, -1.00, 401.2, 418.3)">Q</text><text xml:space="preserve" font-family="Avenir-Medium,Avenir" font-size="24.0" fill="#000000" transform="matrix(1.00, 0.00, -0.00, -1.00, 425.0, 418.3)">U</text><text xml:space="preserve" font-family="Avenir-Medium,Avenir" font-size="24.0" fill="#000000" transform="matrix(1.00, 0.00, -0.00, -1.00, 445.7, 418.3)">E</text><text xml:space="preserve" font-family="Avenir-Medium,Avenir" font-size="24.0" fill="#000000" transform="matrix(1.00, 0.00, -0.00, -1.00, 464.2, 418.3)"> </text><text xml:space="preserve" font-family="LucidaGrande-Bold,Lucida Grande" font-weight="bold" font-size="23.5" fill="#646363" transform="matrix(1.00, 0.00, -0.00, -1.00, 60.9, 385.0)">‣</text><text xml:space="preserve" font-family="Avenir-Medium,Avenir" font-size="24.0" fill="#000000" transform="matrix(1.00, 0.00, -0.00, -1.00, 85.7, 385.3)">I</text><text xml:space="preserve" font-family="Avenir-Medium,Avenir" font-size="24.0" fill="#000000" transform="matrix(1.00, 0.00, -0.00, -1.00, 96.3, 385.3)">N</text><text xml:space="preserve" font-family="Avenir-Medium,Avenir" font-size="24.0" fill="#000000" transform="matrix(1.00, 0.00, -0.00, -1.00, 119.2, 385.3)">T</text><text xml:space="preserve" font-family="Avenir-Medium,Avenir" font-size="24.0" fill="#000000" transform="matrix(1.00, 0.00, -0.00, -1.00, 136.8, 385.3)">É</text><text xml:space="preserve" font-family="Avenir-Medium,Avenir" font-size="24.0" fill="#000000" transform="matrix(1.00, 0.00, -0.00, -1.00, 155.3, 385.3)">G</text><text xml:space="preserve" font-family="Avenir-Medium,Avenir" font-size="24.0" fill="#000000" transform="matrix(1.00, 0.00, -0.00, -1.00, 177.8, 385.3)">R</text><text xml:space="preserve" font-family="Avenir-Medium,Avenir" font-size="24.0" fill="#000000" transform="matrix(1.00, 0.00, -0.00, -1.00, 196.3, 385.3)">A</text><text xml:space="preserve" font-family="Avenir-Medium,Avenir" font-size="24.0" fill="#000000" transform="matrix(1.00, 0.00, -0.00, -1.00, 214.9, 385.3)">T</text><text xml:space="preserve" font-family="Avenir-Medium,Avenir" font-size="24.0" fill="#000000" transform="matrix(1.00, 0.00, -0.00, -1.00, 232.5, 385.3)">I</text><text xml:space="preserve" font-family="Avenir-Medium,Avenir" font-size="24.0" fill="#000000" transform="matrix(1.00, 0.00, -0.00, -1.00, 243.0, 385.3)">O</text><text xml:space="preserve" font-family="Avenir-Medium,Avenir" font-size="24.0" fill="#000000" transform="matrix(1.00, 0.00, -0.00, -1.00, 266.8, 385.3)">N</text><text xml:space="preserve" font-family="Avenir-Medium,Avenir" font-size="24.0" fill="#000000" transform="matrix(1.00, 0.00, -0.00, -1.00, 289.7, 385.3)">,</text><text xml:space="preserve" font-family="Avenir-Medium,Avenir" font-size="24.0" fill="#000000" transform="matrix(1.00, 0.00, -0.00, -1.00, 300.3, 385.3)"> </text><text xml:space="preserve" font-family="Avenir-Medium,Avenir" font-size="24.0" fill="#000000" transform="matrix(1.00, 0.00, -0.00, -1.00, 310.8, 385.3)">E</text><text xml:space="preserve" font-family="Avenir-Medium,Avenir" font-size="24.0" fill="#000000" transform="matrix(1.00, 0.00, -0.00, -1.00, 329.3, 385.3)">T</text><text xml:space="preserve" font-family="Avenir-Medium,Avenir" font-size="24.0" fill="#000000" transform="matrix(1.00, 0.00, -0.00, -1.00, 346.9, 385.3)"> </text><text xml:space="preserve" font-family="Avenir-Medium,Avenir" font-size="24.0" fill="#000000" transform="matrix(1.00, 0.00, -0.00, -1.00, 357.4, 385.3)">S</text><text xml:space="preserve" font-family="Avenir-Medium,Avenir" font-size="24.0" fill="#000000" transform="matrix(1.00, 0.00, -0.00, -1.00, 374.6, 385.3)">U</text><text xml:space="preserve" font-family="Avenir-Medium,Avenir" font-size="24.0" fill="#000000" transform="matrix(1.00, 0.00, -0.00, -1.00, 395.3, 385.3)">P</text><text xml:space="preserve" font-family="Avenir-Medium,Avenir" font-size="24.0" fill="#000000" transform="matrix(1.00, 0.00, -0.00, -1.00, 413.4, 385.3)">E</text><text xml:space="preserve" font-family="Avenir-Medium,Avenir" font-size="24.0" fill="#000000" transform="matrix(1.00, 0.00, -0.00, -1.00, 431.9, 385.3)">R</text><text xml:space="preserve" font-family="Avenir-Medium,Avenir" font-size="24.0" fill="#000000" transform="matrix(1.00, 0.00, -0.00, -1.00, 450.4, 385.3)">V</text><text xml:space="preserve" font-family="Avenir-Medium,Avenir" font-size="24.0" fill="#000000" transform="matrix(1.00, 0.00, -0.00, -1.00, 469.4, 385.3)">I</text><text xml:space="preserve" font-family="Avenir-Medium,Avenir" font-size="24.0" fill="#000000" transform="matrix(1.00, 0.00, -0.00, -1.00, 479.9, 385.3)">S</text><text xml:space="preserve" font-family="Avenir-Medium,Avenir" font-size="24.0" fill="#000000" transform="matrix(1.00, 0.00, -0.00, -1.00, 497.1, 385.3)">I</text><text xml:space="preserve" font-family="Avenir-Medium,Avenir" font-size="24.0" fill="#000000" transform="matrix(1.00, 0.00, -0.00, -1.00, 507.6, 385.3)">O</text><text xml:space="preserve" font-family="Avenir-Medium,Avenir" font-size="24.0" fill="#000000" transform="matrix(1.00, 0.00, -0.00, -1.00, 531.4, 385.3)">N</text><text xml:space="preserve" font-family="AvenirNext-Bold,Avenir Next" font-weight="bold" font-size="24.0" fill="#000000" transform="matrix(1.00, 0.00, -0.00, -1.00, 80.9, 535.4)">Q</text><text xml:space="preserve" font-family="AvenirNext-Bold,Avenir Next" font-weight="bold" font-size="24.0" fill="#000000" transform="matrix(1.00, 0.00, -0.00, -1.00, 105.3, 535.4)">U</text><text xml:space="preserve" font-family="AvenirNext-Bold,Avenir Next" font-weight="bold" font-size="24.0" fill="#000000" transform="matrix(1.00, 0.00, -0.00, -1.00, 126.9, 535.4)">I</text><text xml:space="preserve" font-family="AvenirNext-Bold,Avenir Next" font-weight="bold" font-size="24.0" fill="#000000" transform="matrix(1.00, 0.00, -0.00, -1.00, 138.4, 535.4)"> </text><text xml:space="preserve" font-family="AvenirNext-Bold,Avenir Next" font-weight="bold" font-size="24.0" fill="#000000" transform="matrix(1.00, 0.00, -0.00, -1.00, 148.2, 535.4)">F</text><text xml:space="preserve" font-family="AvenirNext-Bold,Avenir Next" font-weight="bold" font-size="24.0" fill="#000000" transform="matrix(1.00, 0.00, -0.00, -1.00, 164.6, 535.4)">A</text><text xml:space="preserve" font-family="AvenirNext-Bold,Avenir Next" font-weight="bold" font-size="24.0" fill="#000000" transform="matrix(1.00, 0.00, -0.00, -1.00, 185.9, 535.4)">I</text><text xml:space="preserve" font-family="AvenirNext-Bold,Avenir Next" font-weight="bold" font-size="24.0" fill="#000000" transform="matrix(1.00, 0.00, -0.00, -1.00, 197.4, 535.4)">T</text><text xml:space="preserve" font-family="AvenirNext-Bold,Avenir Next" font-weight="bold" font-size="24.0" fill="#000000" transform="matrix(1.00, 0.00, -0.00, -1.00, 214.6, 535.4)"> </text><text xml:space="preserve" font-family="AvenirNext-Bold,Avenir Next" font-weight="bold" font-size="24.0" fill="#000000" transform="matrix(1.00, 0.00, -0.00, -1.00, 224.4, 535.4)">Q</text><text xml:space="preserve" font-family="AvenirNext-Bold,Avenir Next" font-weight="bold" font-size="24.0" fill="#000000" transform="matrix(1.00, 0.00, -0.00, -1.00, 248.8, 535.4)">U</text><text xml:space="preserve" font-family="AvenirNext-Bold,Avenir Next" font-weight="bold" font-size="24.0" fill="#000000" transform="matrix(1.00, 0.00, -0.00, -1.00, 270.4, 535.4)">O</text><text xml:space="preserve" font-family="AvenirNext-Bold,Avenir Next" font-weight="bold" font-size="24.0" fill="#000000" transform="matrix(1.00, 0.00, -0.00, -1.00, 294.7, 535.4)">I</text><text xml:space="preserve" font-family="AvenirNext-Bold,Avenir Next" font-weight="bold" font-size="24.0" fill="#000000" transform="matrix(1.00, 0.00, -0.00, -1.00, 306.1, 535.4)"> </text><text xml:space="preserve" font-family="AvenirNext-Bold,Avenir Next" font-weight="bold" font-size="24.0" fill="#000000" transform="matrix(1.00, 0.00, -0.00, -1.00, 316.0, 535.4)">?</text><text xml:space="preserve" font-family="Avenir-Light,Avenir" font-size="18.0" fill="#000000" transform="matrix(1.00, 0.00, -0.00, -1.00, 970.3, 21.1)">6</text><text xml:space="preserve" font-family="Avenir-Light,Avenir" font-size="18.0" fill="#000000" transform="matrix(1.00, 0.00, -0.00, -1.00, 979.7, 21.1)">/</text><text xml:space="preserve" font-family="Avenir-Light,Avenir" font-size="18.0" fill="#000000" transform="matrix(1.00, 0.00, -0.00, -1.00, 986.3, 21.1)">8</text><image xlink:href="../../B27D2CBA-49BC-491F-B37E-6F57691C2D53/assets/FCB61420EDDB7973B1DC89BDB07205C2.png" width="4096.00" height="4096.00" transform="matrix(0.05, 0.00, -0.00, -0.05, 66.4, 306.1)"></image><image xlink:href="../../B27D2CBA-49BC-491F-B37E-6F57691C2D53/assets/EB736257A91CDD34204882362C2ECCFB.png" width="512.00" height="512.00" transform="matrix(0.18, 0.00, -0.00, -0.18, 228.5, 253.8)"></image><image xlink:href="../../B27D2CBA-49BC-491F-B37E-6F57691C2D53/assets/4D98BDBD549F9E2BFEAA6E69E1B5ADC8.png" width="365.00" height="512.00" transform="matrix(0.18, 0.00, -0.00, -0.18, 335.4, 253.8)"></image><g><clipPath id="clip0x6000008be060"><path d="M 424.0 256.0 L 592.0 256.0 L 592.0 160.0 L 424.0 160.0 Z M 424.2 256.1 "></path></clipPath><g clip-path="url(#clip0x6000008be060)"><g><clipPath id="clip0x6000008b55a0"><path d="M 512.6 256.1 C 512.4 256.1 507.3 251.9 501.2 246.8 C 495.1 241.7 490.1 237.6 490.0 237.6 C 490.0 237.6 488.3 239.0 486.3 240.8 C 484.3 242.6 482.6 244.1 482.5 244.1 C 482.4 244.1 479.3 241.9 475.7 239.1 L 469.1 234.2 L 452.3 227.6 L 435.5 221.0 L 431.5 221.0 C 429.9 220.8 428.8 220.2 427.9 220.0 C 427.5 219.9 427.2 219.9 426.9 219.8 C 426.7 219.7 426.6 219.7 426.4 219.6 C 426.0 219.5 425.6 219.4 425.4 219.2 C 425.1 219.0 424.9 218.7 424.7 218.4 C 424.6 218.2 424.5 218.0 424.4 217.6 C 424.3 217.2 424.3 216.5 424.2 215.4 C 424.2 215.2 424.2 215.0 424.2 214.8 C 424.2 212.2 424.2 207.8 424.2 198.9 C 424.2 193.7 424.2 189.9 424.2 187.0 C 424.2 184.2 424.2 182.3 424.3 181.1 C 424.5 179.9 424.6 179.2 424.9 178.9 C 425.1 178.5 425.5 178.4 425.9 178.2 C 426.6 177.9 428.6 177.5 432.4 177.1 C 435.0 176.8 436.7 176.6 441.9 175.4 C 447.1 174.3 455.8 172.3 472.4 168.5 C 491.4 164.1 507.3 160.5 507.8 160.5 C 508.4 160.4 524.4 164.0 543.5 168.5 C 558.2 171.9 565.9 173.6 571.3 174.8 C 574.8 175.6 578.2 176.3 579.8 176.6 C 581.2 176.8 582.3 177.0 583.5 177.1 C 589.2 177.7 590.5 178.1 591.2 179.3 C 591.7 180.1 591.7 181.1 591.7 198.8 C 591.7 208.0 591.7 212.7 591.7 215.2 C 591.6 216.5 591.6 217.2 591.5 217.6 C 591.4 218.0 591.3 218.2 591.2 218.4 C 590.8 219.0 590.3 219.4 589.3 219.7 C 588.3 220.0 586.8 220.7 584.4 221.0 L 580.4 221.0 L 565.9 226.7 C 558.0 229.8 551.2 232.5 551.0 232.7 C 550.7 232.8 547.6 235.5 544.1 238.7 C 540.6 241.8 537.6 244.4 537.4 244.5 C 537.2 244.6 535.5 243.5 533.6 242.1 C 531.8 240.8 530.1 239.6 529.9 239.5 C 529.9 239.5 529.6 239.7 529.1 240.1 C 528.7 240.5 528.1 241.0 527.3 241.8 C 525.8 243.2 523.7 245.3 521.2 247.7 C 516.6 252.3 512.7 256.1 512.6 256.1 Z M 512.6 256.1 "></path></clipPath><g clip-path="url(#clip0x6000008b55a0)"><image xlink:href="../../B27D2CBA-49BC-491F-B37E-6F57691C2D53/assets/B2966A481A20AA5AACAE0AFB6617623D.jpeg" width="800.00" height="600.00" transform="matrix(0.26, 0.00, -0.00, -0.26, 403.6, 283.4)"></image></g></g></g></g></g></svg>