<?xml version="1.0" standalone="no"?>
<!DOCTYPE svg PUBLIC "-//W3C//DTD SVG 1.1//EN" 
  "http://www.w3.org/Graphics/SVG/1.1/DTD/svg11.dtd">
<svg version="1.0" id="Layer_1" xmlns="http://www.w3.org/2000/svg" xmlns:xlink="http://www.w3.org/1999/xlink" x="0px" y="0px" viewBox="0 0 24 24" style="enable-background:new 0 0 24 24;" xml:space="preserve">
	<path d="M20,20c0,1.105-0.895,2-2,2c-1.105,0-2-0.895-2-2c0-1.105,0.895-2,2-2C19.105,18,20,18.895,20,20z M7,18
		c-1.105,0-2,0.895-2,2c0,1.105,0.895,2,2,2c1.105,0,2-0.895,2-2S8.105,18,7,18z M8.5,13L7,15h13v2H7
		c-0.753,0-1.435-0.415-1.779-1.084c-0.344-0.67-0.281-1.474,0.166-2.098l1.499-1.999L4.279,4H2V2h3.721l0.667,2H21
		c0.7,0,1.2,0.7,0.9,1.4l-3.1,7c-0.1,0.4-0.5,0.6-0.9,0.6H8.5z M10,9h4v2l3-2.5L14,6v2h-4V9z" fill="white"></path>
</svg>