<?xml version="1.0" standalone="no"?>
<!DOCTYPE svg PUBLIC "-//W3C//DTD SVG 1.1//EN" 
  "http://www.w3.org/Graphics/SVG/1.1/DTD/svg11.dtd">
<svg version="1.0" id="Layer_1" xmlns="http://www.w3.org/2000/svg" xmlns:xlink="http://www.w3.org/1999/xlink" x="0px" y="0px" width="50.004px" height="50px" viewBox="0 0 50.004 50" style="enable-background:new 0 0 50.004 50;" xml:space="preserve">
<path d="M45.363,8.996H20.636c-1.803,0-3.169,1.07-3.938,2.349c-2.433-1.017-4.009,0.451-5.302,1.661
	c-0.275,0.258-0.557,0.522-0.854,0.771c-1.845,1.549-10.038,7.347-10.121,7.406c-0.451,0.319-0.558,0.943-0.239,1.394
	C0.378,22.853,0.688,23,1.001,23c0.2,0,0.401-0.06,0.577-0.184c0.34-0.24,8.344-5.905,10.251-7.507
	c0.325-0.272,0.633-0.561,0.935-0.843c1.335-1.251,2.023-1.812,3.263-1.239c-0.019,0.149-0.031,0.297-0.031,0.439V25.56
	l-1.385,0.638c-0.501,0.23-0.721,0.825-0.49,1.326c0.231,0.502,0.824,0.723,1.327,0.49l9.282-4.276
	c3.244-1.732,5.024-2.063,5.775-1.073c0.429,0.565,0.597,1.237,0.488,1.942c-0.164,1.058-0.906,2.101-2.091,2.938
	c-2.375,1.68-5.9,2.84-5.935,2.851l-0.188,0.062l-0.15,0.128c-0.861,0.732-1.541,1.446-2.198,2.138
	c-2.022,2.124-3.483,3.659-8.605,3.661L0.943,37.002c-0.552,0.031-0.973,0.504-0.942,1.055c0.032,0.552,0.516,0.975,1.055,0.941
	l10.826-0.617c2.65,0,4.511-0.416,5.946-1.073c0.281,0.776,0.844,1.374,1.588,1.614c1.115,0.36,2.676,0.459,4.26-0.759
	c0.327,0.768,0.899,1.411,1.772,1.726c0.603,0.218,1.146,0.309,1.64,0.309c1.363,0,2.337-0.7,3.073-1.382
	c0.058-0.054,0.14-0.142,0.245-0.266c0.205,0.134,0.444,0.241,0.722,0.314c1.431,0.374,2.833-0.044,3.961-1.174
	c1.009-1.008,1.625-2.588,1.84-4.687h8.713c2.405,0,4.361-1.969,4.361-4.389V13.554C50.004,11.168,47.792,8.996,45.363,8.996z
	 M20.636,11.004h24.727c1.329,0,2.633,1.263,2.633,2.55V14H18.004v-0.333C18.004,12.728,19.003,11.004,20.636,11.004z
	 M23.414,35.437c-0.015,0.082-0.028,0.164-0.039,0.247c-0.053,0.042-0.103,0.09-0.148,0.144c-1.319,1.568-2.456,1.432-3.195,1.192
	c-0.224-0.072-0.38-0.4-0.401-0.798c0.842-0.643,1.539-1.375,2.25-2.121c0.343-0.361,0.702-0.728,1.078-1.097h0.742
	C23.638,33.713,23.532,34.788,23.414,35.437z M28.804,37.348c-0.956,0.885-1.607,1.045-2.676,0.66
	c-0.791-0.286-0.88-1.479-0.746-2.213c0.144-0.792,0.264-2.062,0.326-2.791h3.77c-0.073,0.459-0.152,1.007-0.206,1.526
	c-0.046,0.447-0.137,1.337,0.033,2.202C29.089,37.008,28.863,37.286,28.804,37.348z M33.676,36.276
	c-0.635,0.634-1.305,0.845-2.039,0.653c-0.377-0.1-0.51-0.879-0.374-2.194c0.062-0.598,0.163-1.255,0.243-1.731h3.4
	C34.726,34.513,34.323,35.629,33.676,36.276z M45.643,30.996H26.82c1.064-0.494,2.226-1.104,3.237-1.819
	c1.631-1.152,2.665-2.667,2.912-4.265c0.194-1.253-0.106-2.448-0.87-3.457c-2.118-2.79-6.3-0.556-8.258,0.491l-5.837,2.688V18
	h29.992v10.615C47.996,29.928,46.94,30.996,45.643,30.996z" fill="white"></path>
</svg>