<?xml version="1.0" encoding="UTF-8" standalone="no"?><svg xmlns="http://www.w3.org/2000/svg" xmlns:xlink="http://www.w3.org/1999/xlink" clip-rule="evenodd" stroke-miterlimit="10" viewBox="0 0 1024 768"><desc>SVG generated by Keynote</desc><defs></defs><g transform="matrix(1.00, 0.00, -0.00, -1.00, 0.0, 768.0)"><path d="M 0.0 768.0 L 1024.0 768.0 L 1024.0 0.0 L 0.0 0.0 Z M 0.0 768.0 " fill="#FEFFFE"></path><text xml:space="preserve" font-family="LucidaGrande-Bold,Lucida Grande" font-weight="bold" font-size="23.5" fill="#646363" transform="matrix(1.00, 0.00, -0.00, -1.00, 56.0, 249.2)">‣</text><text xml:space="preserve" font-family="Avenir-Medium,Avenir" font-size="24.0" fill="#000000" transform="matrix(1.00, 0.00, -0.00, -1.00, 80.8, 249.5)">M</text><text xml:space="preserve" font-family="Avenir-Medium,Avenir" font-size="24.0" fill="#000000" transform="matrix(1.00, 0.00, -0.00, -1.00, 106.4, 249.5)">E</text><text xml:space="preserve" font-family="Avenir-Medium,Avenir" font-size="24.0" fill="#000000" transform="matrix(1.00, 0.00, -0.00, -1.00, 124.9, 249.5)">I</text><text xml:space="preserve" font-family="Avenir-Medium,Avenir" font-size="24.0" fill="#000000" transform="matrix(1.00, 0.00, -0.00, -1.00, 135.4, 249.5)">L</text><text xml:space="preserve" font-family="Avenir-Medium,Avenir" font-size="24.0" fill="#000000" transform="matrix(1.00, 0.00, -0.00, -1.00, 151.7, 249.5)">L</text><text xml:space="preserve" font-family="Avenir-Medium,Avenir" font-size="24.0" fill="#000000" transform="matrix(1.00, 0.00, -0.00, -1.00, 168.0, 249.5)">E</text><text xml:space="preserve" font-family="Avenir-Medium,Avenir" font-size="24.0" fill="#000000" transform="matrix(1.00, 0.00, -0.00, -1.00, 186.5, 249.5)">U</text><text xml:space="preserve" font-family="Avenir-Medium,Avenir" font-size="24.0" fill="#000000" transform="matrix(1.00, 0.00, -0.00, -1.00, 207.2, 249.5)">R</text><text xml:space="preserve" font-family="Avenir-Medium,Avenir" font-size="24.0" fill="#000000" transform="matrix(1.00, 0.00, -0.00, -1.00, 225.7, 249.5)">S</text><text xml:space="preserve" font-family="Avenir-Medium,Avenir" font-size="24.0" fill="#000000" transform="matrix(1.00, 0.00, -0.00, -1.00, 242.9, 249.5)"> </text><text xml:space="preserve" font-family="Avenir-Medium,Avenir" font-size="24.0" fill="#000000" transform="matrix(1.00, 0.00, -0.00, -1.00, 253.4, 249.5)">T</text><text xml:space="preserve" font-family="Avenir-Medium,Avenir" font-size="24.0" fill="#000000" transform="matrix(1.00, 0.00, -0.00, -1.00, 271.0, 249.5)">W</text><text xml:space="preserve" font-family="Avenir-Medium,Avenir" font-size="24.0" fill="#000000" transform="matrix(1.00, 0.00, -0.00, -1.00, 298.0, 249.5)">E</text><text xml:space="preserve" font-family="Avenir-Medium,Avenir" font-size="24.0" fill="#000000" transform="matrix(1.00, 0.00, -0.00, -1.00, 316.5, 249.5)">E</text><text xml:space="preserve" font-family="Avenir-Medium,Avenir" font-size="24.0" fill="#000000" transform="matrix(1.00, 0.00, -0.00, -1.00, 335.0, 249.5)">T</text><text xml:space="preserve" font-family="Avenir-Medium,Avenir" font-size="24.0" fill="#000000" transform="matrix(1.00, 0.00, -0.00, -1.00, 352.6, 249.5)">S</text><text xml:space="preserve" font-family="Avenir-Medium,Avenir" font-size="24.0" fill="#000000" transform="matrix(1.00, 0.00, -0.00, -1.00, 369.8, 249.5)"> </text><text xml:space="preserve" font-family="Avenir-Medium,Avenir" font-size="24.0" fill="#000000" transform="matrix(1.00, 0.00, -0.00, -1.00, 380.3, 249.5)">E</text><text xml:space="preserve" font-family="Avenir-Medium,Avenir" font-size="24.0" fill="#000000" transform="matrix(1.00, 0.00, -0.00, -1.00, 398.8, 249.5)">N</text><text xml:space="preserve" font-family="Avenir-Medium,Avenir" font-size="24.0" fill="#000000" transform="matrix(1.00, 0.00, -0.00, -1.00, 421.7, 249.5)"> </text><text xml:space="preserve" font-family="Avenir-Medium,Avenir" font-size="24.0" fill="#000000" transform="matrix(1.00, 0.00, -0.00, -1.00, 432.3, 249.5)">T</text><text xml:space="preserve" font-family="Avenir-Medium,Avenir" font-size="24.0" fill="#000000" transform="matrix(1.00, 0.00, -0.00, -1.00, 449.9, 249.5)">E</text><text xml:space="preserve" font-family="Avenir-Medium,Avenir" font-size="24.0" fill="#000000" transform="matrix(1.00, 0.00, -0.00, -1.00, 468.4, 249.5)">M</text><text xml:space="preserve" font-family="Avenir-Medium,Avenir" font-size="24.0" fill="#000000" transform="matrix(1.00, 0.00, -0.00, -1.00, 494.0, 249.5)">P</text><text xml:space="preserve" font-family="Avenir-Medium,Avenir" font-size="24.0" fill="#000000" transform="matrix(1.00, 0.00, -0.00, -1.00, 512.0, 249.5)">S</text><text xml:space="preserve" font-family="Avenir-Medium,Avenir" font-size="24.0" fill="#000000" transform="matrix(1.00, 0.00, -0.00, -1.00, 529.2, 249.5)"> </text><text xml:space="preserve" font-family="Avenir-Medium,Avenir" font-size="24.0" fill="#000000" transform="matrix(1.00, 0.00, -0.00, -1.00, 539.7, 249.5)">R</text><text xml:space="preserve" font-family="Avenir-Medium,Avenir" font-size="24.0" fill="#000000" transform="matrix(1.00, 0.00, -0.00, -1.00, 558.2, 249.5)">É</text><text xml:space="preserve" font-family="Avenir-Medium,Avenir" font-size="24.0" fill="#000000" transform="matrix(1.00, 0.00, -0.00, -1.00, 576.7, 249.5)">E</text><text xml:space="preserve" font-family="Avenir-Medium,Avenir" font-size="24.0" fill="#000000" transform="matrix(1.00, 0.00, -0.00, -1.00, 595.2, 249.5)">L</text><text xml:space="preserve" font-family="Avenir-Medium,Avenir" font-size="24.0" fill="#000000" transform="matrix(1.00, 0.00, -0.00, -1.00, 611.5, 249.5)"> </text><text xml:space="preserve" font-family="LucidaGrande-Bold,Lucida Grande" font-weight="bold" font-size="23.5" fill="#646363" transform="matrix(1.00, 0.00, -0.00, -1.00, 56.0, 216.2)">‣</text><text xml:space="preserve" font-family="Avenir-Medium,Avenir" font-size="24.0" fill="#000000" transform="matrix(1.00, 0.00, -0.00, -1.00, 80.8, 216.5)">A</text><text xml:space="preserve" font-family="Avenir-Medium,Avenir" font-size="24.0" fill="#000000" transform="matrix(1.00, 0.00, -0.00, -1.00, 101.5, 216.5)">S</text><text xml:space="preserve" font-family="Avenir-Medium,Avenir" font-size="24.0" fill="#000000" transform="matrix(1.00, 0.00, -0.00, -1.00, 118.7, 216.5)">S</text><text xml:space="preserve" font-family="Avenir-Medium,Avenir" font-size="24.0" fill="#000000" transform="matrix(1.00, 0.00, -0.00, -1.00, 135.9, 216.5)">O</text><text xml:space="preserve" font-family="Avenir-Medium,Avenir" font-size="24.0" fill="#000000" transform="matrix(1.00, 0.00, -0.00, -1.00, 159.7, 216.5)">C</text><text xml:space="preserve" font-family="Avenir-Medium,Avenir" font-size="24.0" fill="#000000" transform="matrix(1.00, 0.00, -0.00, -1.00, 180.4, 216.5)">I</text><text xml:space="preserve" font-family="Avenir-Medium,Avenir" font-size="24.0" fill="#000000" transform="matrix(1.00, 0.00, -0.00, -1.00, 191.0, 216.5)">A</text><text xml:space="preserve" font-family="Avenir-Medium,Avenir" font-size="24.0" fill="#000000" transform="matrix(1.00, 0.00, -0.00, -1.00, 209.5, 216.5)">T</text><text xml:space="preserve" font-family="Avenir-Medium,Avenir" font-size="24.0" fill="#000000" transform="matrix(1.00, 0.00, -0.00, -1.00, 227.1, 216.5)">I</text><text xml:space="preserve" font-family="Avenir-Medium,Avenir" font-size="24.0" fill="#000000" transform="matrix(1.00, 0.00, -0.00, -1.00, 237.6, 216.5)">O</text><text xml:space="preserve" font-family="Avenir-Medium,Avenir" font-size="24.0" fill="#000000" transform="matrix(1.00, 0.00, -0.00, -1.00, 261.4, 216.5)">N</text><text xml:space="preserve" font-family="Avenir-Medium,Avenir" font-size="24.0" fill="#000000" transform="matrix(1.00, 0.00, -0.00, -1.00, 284.4, 216.5)"> </text><text xml:space="preserve" font-family="Avenir-Medium,Avenir" font-size="24.0" fill="#000000" transform="matrix(1.00, 0.00, -0.00, -1.00, 294.9, 216.5)">M</text><text xml:space="preserve" font-family="Avenir-Medium,Avenir" font-size="24.0" fill="#000000" transform="matrix(1.00, 0.00, -0.00, -1.00, 320.5, 216.5)">O</text><text xml:space="preserve" font-family="Avenir-Medium,Avenir" font-size="24.0" fill="#000000" transform="matrix(1.00, 0.00, -0.00, -1.00, 344.3, 216.5)">T</text><text xml:space="preserve" font-family="Avenir-Medium,Avenir" font-size="24.0" fill="#000000" transform="matrix(1.00, 0.00, -0.00, -1.00, 361.9, 216.5)">S</text><text xml:space="preserve" font-family="Avenir-Medium,Avenir" font-size="24.0" fill="#000000" transform="matrix(1.00, 0.00, -0.00, -1.00, 379.1, 216.5)"> </text><text xml:space="preserve" font-family="Avenir-Medium,Avenir" font-size="24.0" fill="#000000" transform="matrix(1.00, 0.00, -0.00, -1.00, 389.6, 216.5)">E</text><text xml:space="preserve" font-family="Avenir-Medium,Avenir" font-size="24.0" fill="#000000" transform="matrix(1.00, 0.00, -0.00, -1.00, 408.1, 216.5)">T</text><text xml:space="preserve" font-family="Avenir-Medium,Avenir" font-size="24.0" fill="#000000" transform="matrix(1.00, 0.00, -0.00, -1.00, 425.7, 216.5)"> </text><text xml:space="preserve" font-family="Avenir-Medium,Avenir" font-size="24.0" fill="#000000" transform="matrix(1.00, 0.00, -0.00, -1.00, 436.2, 216.5)">P</text><text xml:space="preserve" font-family="Avenir-Medium,Avenir" font-size="24.0" fill="#000000" transform="matrix(1.00, 0.00, -0.00, -1.00, 454.3, 216.5)">R</text><text xml:space="preserve" font-family="Avenir-Medium,Avenir" font-size="24.0" fill="#000000" transform="matrix(1.00, 0.00, -0.00, -1.00, 472.8, 216.5)">O</text><text xml:space="preserve" font-family="Avenir-Medium,Avenir" font-size="24.0" fill="#000000" transform="matrix(1.00, 0.00, -0.00, -1.00, 496.6, 216.5)">D</text><text xml:space="preserve" font-family="Avenir-Medium,Avenir" font-size="24.0" fill="#000000" transform="matrix(1.00, 0.00, -0.00, -1.00, 518.2, 216.5)">U</text><text xml:space="preserve" font-family="Avenir-Medium,Avenir" font-size="24.0" fill="#000000" transform="matrix(1.00, 0.00, -0.00, -1.00, 539.0, 216.5)">I</text><text xml:space="preserve" font-family="Avenir-Medium,Avenir" font-size="24.0" fill="#000000" transform="matrix(1.00, 0.00, -0.00, -1.00, 549.5, 216.5)">T</text><text xml:space="preserve" font-family="Avenir-Medium,Avenir" font-size="24.0" fill="#000000" transform="matrix(1.00, 0.00, -0.00, -1.00, 567.1, 216.5)">S</text><text xml:space="preserve" font-family="AvenirNext-Bold,Avenir Next" font-weight="bold" font-size="24.0" fill="#000000" transform="matrix(1.00, 0.00, -0.00, -1.00, 80.9, 317.8)">P</text><text xml:space="preserve" font-family="AvenirNext-Bold,Avenir Next" font-weight="bold" font-size="24.0" fill="#000000" transform="matrix(1.00, 0.00, -0.00, -1.00, 100.1, 317.8)">O</text><text xml:space="preserve" font-family="AvenirNext-Bold,Avenir Next" font-weight="bold" font-size="24.0" fill="#000000" transform="matrix(1.00, 0.00, -0.00, -1.00, 124.4, 317.8)">S</text><text xml:space="preserve" font-family="AvenirNext-Bold,Avenir Next" font-weight="bold" font-size="24.0" fill="#000000" transform="matrix(1.00, 0.00, -0.00, -1.00, 142.4, 317.8)">S</text><text xml:space="preserve" font-family="AvenirNext-Bold,Avenir Next" font-weight="bold" font-size="24.0" fill="#000000" transform="matrix(1.00, 0.00, -0.00, -1.00, 160.5, 317.8)">I</text><text xml:space="preserve" font-family="AvenirNext-Bold,Avenir Next" font-weight="bold" font-size="24.0" fill="#000000" transform="matrix(1.00, 0.00, -0.00, -1.00, 171.9, 317.8)">B</text><text xml:space="preserve" font-family="AvenirNext-Bold,Avenir Next" font-weight="bold" font-size="24.0" fill="#000000" transform="matrix(1.00, 0.00, -0.00, -1.00, 191.7, 317.8)">I</text><text xml:space="preserve" font-family="AvenirNext-Bold,Avenir Next" font-weight="bold" font-size="24.0" fill="#000000" transform="matrix(1.00, 0.00, -0.00, -1.00, 203.2, 317.8)">L</text><text xml:space="preserve" font-family="AvenirNext-Bold,Avenir Next" font-weight="bold" font-size="24.0" fill="#000000" transform="matrix(1.00, 0.00, -0.00, -1.00, 219.7, 317.8)">I</text><text xml:space="preserve" font-family="AvenirNext-Bold,Avenir Next" font-weight="bold" font-size="24.0" fill="#000000" transform="matrix(1.00, 0.00, -0.00, -1.00, 231.1, 317.8)">T</text><text xml:space="preserve" font-family="AvenirNext-Bold,Avenir Next" font-weight="bold" font-size="24.0" fill="#000000" transform="matrix(1.00, 0.00, -0.00, -1.00, 248.9, 317.8)">É</text><text xml:space="preserve" font-family="AvenirNext-Bold,Avenir Next" font-weight="bold" font-size="24.0" fill="#000000" transform="matrix(1.00, 0.00, -0.00, -1.00, 267.3, 317.8)">S</text><text xml:space="preserve" font-family="AvenirNext-Bold,Avenir Next" font-weight="bold" font-size="24.0" fill="#000000" transform="matrix(1.00, 0.00, -0.00, -1.00, 285.3, 317.8)"> </text><text xml:space="preserve" font-family="AvenirNext-Bold,Avenir Next" font-weight="bold" font-size="24.0" fill="#000000" transform="matrix(1.00, 0.00, -0.00, -1.00, 295.2, 317.8)">F</text><text xml:space="preserve" font-family="AvenirNext-Bold,Avenir Next" font-weight="bold" font-size="24.0" fill="#000000" transform="matrix(1.00, 0.00, -0.00, -1.00, 312.9, 317.8)">U</text><text xml:space="preserve" font-family="AvenirNext-Bold,Avenir Next" font-weight="bold" font-size="24.0" fill="#000000" transform="matrix(1.00, 0.00, -0.00, -1.00, 334.4, 317.8)">T</text><text xml:space="preserve" font-family="AvenirNext-Bold,Avenir Next" font-weight="bold" font-size="24.0" fill="#000000" transform="matrix(1.00, 0.00, -0.00, -1.00, 352.2, 317.8)">U</text><text xml:space="preserve" font-family="AvenirNext-Bold,Avenir Next" font-weight="bold" font-size="24.0" fill="#000000" transform="matrix(1.00, 0.00, -0.00, -1.00, 373.7, 317.8)">R</text><text xml:space="preserve" font-family="AvenirNext-Bold,Avenir Next" font-weight="bold" font-size="24.0" fill="#000000" transform="matrix(1.00, 0.00, -0.00, -1.00, 393.5, 317.8)">E</text><text xml:space="preserve" font-family="AvenirNext-Bold,Avenir Next" font-weight="bold" font-size="24.0" fill="#000000" transform="matrix(1.00, 0.00, -0.00, -1.00, 411.9, 317.8)">S</text><text xml:space="preserve" font-family="Avenir-Light,Avenir" font-size="18.0" fill="#000000" transform="matrix(1.00, 0.00, -0.00, -1.00, 970.3, 21.1)">6</text><text xml:space="preserve" font-family="Avenir-Light,Avenir" font-size="18.0" fill="#000000" transform="matrix(1.00, 0.00, -0.00, -1.00, 979.7, 21.1)">/</text><text xml:space="preserve" font-family="Avenir-Light,Avenir" font-size="18.0" fill="#000000" transform="matrix(1.00, 0.00, -0.00, -1.00, 986.3, 21.1)">7</text><image xlink:href="../../69BB1A0B-65D1-4BF8-B1E7-C23CB3BAB16D/assets/8F8A0142E93AFE0F2F6B6C26C0DDF7A6.png" width="452.00" height="110.00" transform="matrix(0.45, 0.00, -0.00, -0.45, 775.8, 723.8)"></image></g></svg>