<?xml version="1.0" encoding="UTF-8" standalone="no"?><svg xmlns="http://www.w3.org/2000/svg" xmlns:xlink="http://www.w3.org/1999/xlink" clip-rule="evenodd" stroke-miterlimit="10" viewBox="0 0 1024 768"><desc>SVG generated by Keynote</desc><defs></defs><g transform="matrix(1.00, 0.00, -0.00, -1.00, 0.0, 768.0)"><path d="M 0.0 768.0 L 1024.0 768.0 L 1024.0 0.0 L 0.0 0.0 Z M 0.0 768.0 " fill="#FEFFFE"></path><text xml:space="preserve" font-family="LucidaGrande-Bold,Lucida Grande" font-weight="bold" font-size="23.5" fill="#646363" transform="matrix(1.00, 0.00, -0.00, -1.00, 56.0, 459.2)">‣</text><text xml:space="preserve" font-family="Avenir-Medium,Avenir" font-size="24.0" fill="#000000" transform="matrix(1.00, 0.00, -0.00, -1.00, 80.8, 459.5)">A</text><text xml:space="preserve" font-family="Avenir-Medium,Avenir" font-size="24.0" fill="#000000" transform="matrix(1.00, 0.00, -0.00, -1.00, 101.5, 459.5)">S</text><text xml:space="preserve" font-family="Avenir-Medium,Avenir" font-size="24.0" fill="#000000" transform="matrix(1.00, 0.00, -0.00, -1.00, 118.7, 459.5)">S</text><text xml:space="preserve" font-family="Avenir-Medium,Avenir" font-size="24.0" fill="#000000" transform="matrix(1.00, 0.00, -0.00, -1.00, 135.9, 459.5)">O</text><text xml:space="preserve" font-family="Avenir-Medium,Avenir" font-size="24.0" fill="#000000" transform="matrix(1.00, 0.00, -0.00, -1.00, 159.7, 459.5)">C</text><text xml:space="preserve" font-family="Avenir-Medium,Avenir" font-size="24.0" fill="#000000" transform="matrix(1.00, 0.00, -0.00, -1.00, 180.4, 459.5)">I</text><text xml:space="preserve" font-family="Avenir-Medium,Avenir" font-size="24.0" fill="#000000" transform="matrix(1.00, 0.00, -0.00, -1.00, 191.0, 459.5)">A</text><text xml:space="preserve" font-family="Avenir-Medium,Avenir" font-size="24.0" fill="#000000" transform="matrix(1.00, 0.00, -0.00, -1.00, 209.5, 459.5)">T</text><text xml:space="preserve" font-family="Avenir-Medium,Avenir" font-size="24.0" fill="#000000" transform="matrix(1.00, 0.00, -0.00, -1.00, 227.1, 459.5)">I</text><text xml:space="preserve" font-family="Avenir-Medium,Avenir" font-size="24.0" fill="#000000" transform="matrix(1.00, 0.00, -0.00, -1.00, 237.6, 459.5)">O</text><text xml:space="preserve" font-family="Avenir-Medium,Avenir" font-size="24.0" fill="#000000" transform="matrix(1.00, 0.00, -0.00, -1.00, 261.4, 459.5)">N</text><text xml:space="preserve" font-family="Avenir-Medium,Avenir" font-size="24.0" fill="#000000" transform="matrix(1.00, 0.00, -0.00, -1.00, 284.4, 459.5)"> </text><text xml:space="preserve" font-family="Avenir-Medium,Avenir" font-size="24.0" fill="#000000" transform="matrix(1.00, 0.00, -0.00, -1.00, 294.9, 459.5)">M</text><text xml:space="preserve" font-family="Avenir-Medium,Avenir" font-size="24.0" fill="#000000" transform="matrix(1.00, 0.00, -0.00, -1.00, 320.5, 459.5)">O</text><text xml:space="preserve" font-family="Avenir-Medium,Avenir" font-size="24.0" fill="#000000" transform="matrix(1.00, 0.00, -0.00, -1.00, 344.3, 459.5)">T</text><text xml:space="preserve" font-family="Avenir-Medium,Avenir" font-size="24.0" fill="#000000" transform="matrix(1.00, 0.00, -0.00, -1.00, 361.9, 459.5)">S</text><text xml:space="preserve" font-family="Avenir-Medium,Avenir" font-size="24.0" fill="#000000" transform="matrix(1.00, 0.00, -0.00, -1.00, 379.1, 459.5)"> </text><text xml:space="preserve" font-family="Avenir-Medium,Avenir" font-size="24.0" fill="#000000" transform="matrix(1.00, 0.00, -0.00, -1.00, 389.6, 459.5)">E</text><text xml:space="preserve" font-family="Avenir-Medium,Avenir" font-size="24.0" fill="#000000" transform="matrix(1.00, 0.00, -0.00, -1.00, 408.1, 459.5)">T</text><text xml:space="preserve" font-family="Avenir-Medium,Avenir" font-size="24.0" fill="#000000" transform="matrix(1.00, 0.00, -0.00, -1.00, 425.7, 459.5)"> </text><text xml:space="preserve" font-family="Avenir-Medium,Avenir" font-size="24.0" fill="#000000" transform="matrix(1.00, 0.00, -0.00, -1.00, 436.2, 459.5)">P</text><text xml:space="preserve" font-family="Avenir-Medium,Avenir" font-size="24.0" fill="#000000" transform="matrix(1.00, 0.00, -0.00, -1.00, 454.3, 459.5)">R</text><text xml:space="preserve" font-family="Avenir-Medium,Avenir" font-size="24.0" fill="#000000" transform="matrix(1.00, 0.00, -0.00, -1.00, 472.8, 459.5)">O</text><text xml:space="preserve" font-family="Avenir-Medium,Avenir" font-size="24.0" fill="#000000" transform="matrix(1.00, 0.00, -0.00, -1.00, 496.6, 459.5)">D</text><text xml:space="preserve" font-family="Avenir-Medium,Avenir" font-size="24.0" fill="#000000" transform="matrix(1.00, 0.00, -0.00, -1.00, 518.2, 459.5)">U</text><text xml:space="preserve" font-family="Avenir-Medium,Avenir" font-size="24.0" fill="#000000" transform="matrix(1.00, 0.00, -0.00, -1.00, 539.0, 459.5)">I</text><text xml:space="preserve" font-family="Avenir-Medium,Avenir" font-size="24.0" fill="#000000" transform="matrix(1.00, 0.00, -0.00, -1.00, 549.5, 459.5)">T</text><text xml:space="preserve" font-family="Avenir-Medium,Avenir" font-size="24.0" fill="#000000" transform="matrix(1.00, 0.00, -0.00, -1.00, 567.1, 459.5)">S</text><text xml:space="preserve" font-family="Avenir-Medium,Avenir" font-size="24.0" fill="#000000" transform="matrix(1.00, 0.00, -0.00, -1.00, 584.3, 459.5)"> </text><text xml:space="preserve" font-family="LucidaGrande-Bold,Lucida Grande" font-weight="bold" font-size="23.5" fill="#646363" transform="matrix(1.00, 0.00, -0.00, -1.00, 56.0, 426.2)">‣</text><text xml:space="preserve" font-family="Avenir-Medium,Avenir" font-size="24.0" fill="#000000" transform="matrix(1.00, 0.00, -0.00, -1.00, 80.8, 426.5)">I</text><text xml:space="preserve" font-family="Avenir-Medium,Avenir" font-size="24.0" fill="#000000" transform="matrix(1.00, 0.00, -0.00, -1.00, 91.3, 426.5)">N</text><text xml:space="preserve" font-family="Avenir-Medium,Avenir" font-size="24.0" fill="#000000" transform="matrix(1.00, 0.00, -0.00, -1.00, 114.3, 426.5)">T</text><text xml:space="preserve" font-family="Avenir-Medium,Avenir" font-size="24.0" fill="#000000" transform="matrix(1.00, 0.00, -0.00, -1.00, 131.9, 426.5)">É</text><text xml:space="preserve" font-family="Avenir-Medium,Avenir" font-size="24.0" fill="#000000" transform="matrix(1.00, 0.00, -0.00, -1.00, 150.4, 426.5)">G</text><text xml:space="preserve" font-family="Avenir-Medium,Avenir" font-size="24.0" fill="#000000" transform="matrix(1.00, 0.00, -0.00, -1.00, 172.9, 426.5)">R</text><text xml:space="preserve" font-family="Avenir-Medium,Avenir" font-size="24.0" fill="#000000" transform="matrix(1.00, 0.00, -0.00, -1.00, 191.4, 426.5)">E</text><text xml:space="preserve" font-family="Avenir-Medium,Avenir" font-size="24.0" fill="#000000" transform="matrix(1.00, 0.00, -0.00, -1.00, 209.9, 426.5)">R</text><text xml:space="preserve" font-family="Avenir-Medium,Avenir" font-size="24.0" fill="#000000" transform="matrix(1.00, 0.00, -0.00, -1.00, 228.4, 426.5)"> </text><text xml:space="preserve" font-family="Avenir-Medium,Avenir" font-size="24.0" fill="#000000" transform="matrix(1.00, 0.00, -0.00, -1.00, 238.9, 426.5)">L</text><text xml:space="preserve" font-family="Avenir-Medium,Avenir" font-size="24.0" fill="#000000" transform="matrix(1.00, 0.00, -0.00, -1.00, 255.2, 426.5)">A</text><text xml:space="preserve" font-family="Avenir-Medium,Avenir" font-size="24.0" fill="#000000" transform="matrix(1.00, 0.00, -0.00, -1.00, 275.9, 426.5)"> </text><text xml:space="preserve" font-family="Avenir-Medium,Avenir" font-size="24.0" fill="#000000" transform="matrix(1.00, 0.00, -0.00, -1.00, 286.5, 426.5)">T</text><text xml:space="preserve" font-family="Avenir-Medium,Avenir" font-size="24.0" fill="#000000" transform="matrix(1.00, 0.00, -0.00, -1.00, 304.1, 426.5)">É</text><text xml:space="preserve" font-family="Avenir-Medium,Avenir" font-size="24.0" fill="#000000" transform="matrix(1.00, 0.00, -0.00, -1.00, 322.6, 426.5)">L</text><text xml:space="preserve" font-family="Avenir-Medium,Avenir" font-size="24.0" fill="#000000" transform="matrix(1.00, 0.00, -0.00, -1.00, 338.9, 426.5)">É</text><text xml:space="preserve" font-family="Avenir-Medium,Avenir" font-size="24.0" fill="#000000" transform="matrix(1.00, 0.00, -0.00, -1.00, 357.4, 426.5)"> </text><text xml:space="preserve" font-family="Avenir-Medium,Avenir" font-size="24.0" fill="#000000" transform="matrix(1.00, 0.00, -0.00, -1.00, 367.9, 426.5)">E</text><text xml:space="preserve" font-family="Avenir-Medium,Avenir" font-size="24.0" fill="#000000" transform="matrix(1.00, 0.00, -0.00, -1.00, 386.4, 426.5)">N</text><text xml:space="preserve" font-family="Avenir-Medium,Avenir" font-size="24.0" fill="#000000" transform="matrix(1.00, 0.00, -0.00, -1.00, 409.3, 426.5)"> </text><text xml:space="preserve" font-family="Avenir-Medium,Avenir" font-size="24.0" fill="#000000" transform="matrix(1.00, 0.00, -0.00, -1.00, 419.8, 426.5)">D</text><text xml:space="preserve" font-family="Avenir-Medium,Avenir" font-size="24.0" fill="#000000" transform="matrix(1.00, 0.00, -0.00, -1.00, 441.5, 426.5)">I</text><text xml:space="preserve" font-family="Avenir-Medium,Avenir" font-size="24.0" fill="#000000" transform="matrix(1.00, 0.00, -0.00, -1.00, 452.0, 426.5)">R</text><text xml:space="preserve" font-family="Avenir-Medium,Avenir" font-size="24.0" fill="#000000" transform="matrix(1.00, 0.00, -0.00, -1.00, 470.5, 426.5)">E</text><text xml:space="preserve" font-family="Avenir-Medium,Avenir" font-size="24.0" fill="#000000" transform="matrix(1.00, 0.00, -0.00, -1.00, 489.0, 426.5)">C</text><text xml:space="preserve" font-family="Avenir-Medium,Avenir" font-size="24.0" fill="#000000" transform="matrix(1.00, 0.00, -0.00, -1.00, 509.7, 426.5)">T</text><text xml:space="preserve" font-family="Avenir-Medium,Avenir" font-size="24.0" fill="#000000" transform="matrix(1.00, 0.00, -0.00, -1.00, 527.3, 426.5)"> </text><text xml:space="preserve" font-family="LucidaGrande-Bold,Lucida Grande" font-weight="bold" font-size="23.5" fill="#646363" transform="matrix(1.00, 0.00, -0.00, -1.00, 56.0, 393.2)">‣</text><text xml:space="preserve" font-family="Avenir-Medium,Avenir" font-size="24.0" fill="#000000" transform="matrix(1.00, 0.00, -0.00, -1.00, 80.8, 393.5)">D</text><text xml:space="preserve" font-family="Avenir-Medium,Avenir" font-size="24.0" fill="#000000" transform="matrix(1.00, 0.00, -0.00, -1.00, 102.4, 393.5)">E</text><text xml:space="preserve" font-family="Avenir-Medium,Avenir" font-size="24.0" fill="#000000" transform="matrix(1.00, 0.00, -0.00, -1.00, 120.9, 393.5)">T</text><text xml:space="preserve" font-family="Avenir-Medium,Avenir" font-size="24.0" fill="#000000" transform="matrix(1.00, 0.00, -0.00, -1.00, 138.5, 393.5)">E</text><text xml:space="preserve" font-family="Avenir-Medium,Avenir" font-size="24.0" fill="#000000" transform="matrix(1.00, 0.00, -0.00, -1.00, 157.0, 393.5)">C</text><text xml:space="preserve" font-family="Avenir-Medium,Avenir" font-size="24.0" fill="#000000" transform="matrix(1.00, 0.00, -0.00, -1.00, 177.8, 393.5)">T</text><text xml:space="preserve" font-family="Avenir-Medium,Avenir" font-size="24.0" fill="#000000" transform="matrix(1.00, 0.00, -0.00, -1.00, 195.4, 393.5)">I</text><text xml:space="preserve" font-family="Avenir-Medium,Avenir" font-size="24.0" fill="#000000" transform="matrix(1.00, 0.00, -0.00, -1.00, 205.9, 393.5)">O</text><text xml:space="preserve" font-family="Avenir-Medium,Avenir" font-size="24.0" fill="#000000" transform="matrix(1.00, 0.00, -0.00, -1.00, 229.7, 393.5)">N</text><text xml:space="preserve" font-family="Avenir-Medium,Avenir" font-size="24.0" fill="#000000" transform="matrix(1.00, 0.00, -0.00, -1.00, 252.7, 393.5)"> </text><text xml:space="preserve" font-family="Avenir-Medium,Avenir" font-size="24.0" fill="#000000" transform="matrix(1.00, 0.00, -0.00, -1.00, 263.2, 393.5)">D</text><text xml:space="preserve" font-family="Avenir-Medium,Avenir" font-size="24.0" fill="#000000" transform="matrix(1.00, 0.00, -0.00, -1.00, 284.8, 393.5)">E</text><text xml:space="preserve" font-family="Avenir-Medium,Avenir" font-size="24.0" fill="#000000" transform="matrix(1.00, 0.00, -0.00, -1.00, 303.3, 393.5)"> </text><text xml:space="preserve" font-family="Avenir-Medium,Avenir" font-size="24.0" fill="#000000" transform="matrix(1.00, 0.00, -0.00, -1.00, 313.8, 393.5)">L</text><text xml:space="preserve" font-family="Avenir-Medium,Avenir" font-size="24.0" fill="#000000" transform="matrix(1.00, 0.00, -0.00, -1.00, 330.1, 393.5)">A</text><text xml:space="preserve" font-family="Avenir-Medium,Avenir" font-size="24.0" fill="#000000" transform="matrix(1.00, 0.00, -0.00, -1.00, 350.8, 393.5)"> </text><text xml:space="preserve" font-family="Avenir-Medium,Avenir" font-size="24.0" fill="#000000" transform="matrix(1.00, 0.00, -0.00, -1.00, 361.4, 393.5)">C</text><text xml:space="preserve" font-family="Avenir-Medium,Avenir" font-size="24.0" fill="#000000" transform="matrix(1.00, 0.00, -0.00, -1.00, 382.1, 393.5)">H</text><text xml:space="preserve" font-family="Avenir-Medium,Avenir" font-size="24.0" fill="#000000" transform="matrix(1.00, 0.00, -0.00, -1.00, 403.7, 393.5)">A</text><text xml:space="preserve" font-family="Avenir-Medium,Avenir" font-size="24.0" fill="#000000" transform="matrix(1.00, 0.00, -0.00, -1.00, 424.5, 393.5)">Î</text><text xml:space="preserve" font-family="Avenir-Medium,Avenir" font-size="24.0" fill="#000000" transform="matrix(1.00, 0.00, -0.00, -1.00, 435.0, 393.5)">N</text><text xml:space="preserve" font-family="Avenir-Medium,Avenir" font-size="24.0" fill="#000000" transform="matrix(1.00, 0.00, -0.00, -1.00, 457.9, 393.5)">E</text><text xml:space="preserve" font-family="Avenir-Medium,Avenir" font-size="24.0" fill="#000000" transform="matrix(1.00, 0.00, -0.00, -1.00, 476.4, 393.5)"> </text><text xml:space="preserve" font-family="Avenir-Medium,Avenir" font-size="24.0" fill="#000000" transform="matrix(1.00, 0.00, -0.00, -1.00, 486.9, 393.5)">R</text><text xml:space="preserve" font-family="Avenir-Medium,Avenir" font-size="24.0" fill="#000000" transform="matrix(1.00, 0.00, -0.00, -1.00, 505.4, 393.5)">E</text><text xml:space="preserve" font-family="Avenir-Medium,Avenir" font-size="24.0" fill="#000000" transform="matrix(1.00, 0.00, -0.00, -1.00, 523.9, 393.5)">G</text><text xml:space="preserve" font-family="Avenir-Medium,Avenir" font-size="24.0" fill="#000000" transform="matrix(1.00, 0.00, -0.00, -1.00, 546.4, 393.5)">A</text><text xml:space="preserve" font-family="Avenir-Medium,Avenir" font-size="24.0" fill="#000000" transform="matrix(1.00, 0.00, -0.00, -1.00, 567.2, 393.5)">R</text><text xml:space="preserve" font-family="Avenir-Medium,Avenir" font-size="24.0" fill="#000000" transform="matrix(1.00, 0.00, -0.00, -1.00, 585.7, 393.5)">D</text><text xml:space="preserve" font-family="Avenir-Medium,Avenir" font-size="24.0" fill="#000000" transform="matrix(1.00, 0.00, -0.00, -1.00, 607.3, 393.5)">É</text><text xml:space="preserve" font-family="Avenir-Medium,Avenir" font-size="24.0" fill="#000000" transform="matrix(1.00, 0.00, -0.00, -1.00, 625.8, 393.5)"> </text><text xml:space="preserve" font-family="Avenir-Medium,Avenir" font-size="24.0" fill="#000000" transform="matrix(1.00, 0.00, -0.00, -1.00, 636.3, 393.5)">P</text><text xml:space="preserve" font-family="Avenir-Medium,Avenir" font-size="24.0" fill="#000000" transform="matrix(1.00, 0.00, -0.00, -1.00, 652.6, 393.5)">A</text><text xml:space="preserve" font-family="Avenir-Medium,Avenir" font-size="24.0" fill="#000000" transform="matrix(1.00, 0.00, -0.00, -1.00, 673.4, 393.5)">R</text><text xml:space="preserve" font-family="Avenir-Medium,Avenir" font-size="24.0" fill="#000000" transform="matrix(1.00, 0.00, -0.00, -1.00, 691.9, 393.5)"> </text><text xml:space="preserve" font-family="Avenir-Medium,Avenir" font-size="24.0" fill="#000000" transform="matrix(1.00, 0.00, -0.00, -1.00, 702.4, 393.5)">L</text><text xml:space="preserve" font-family="Avenir-Medium,Avenir" font-size="24.0" fill="#000000" transform="matrix(1.00, 0.00, -0.00, -1.00, 718.7, 393.5)">E</text><text xml:space="preserve" font-family="Avenir-Medium,Avenir" font-size="24.0" fill="#000000" transform="matrix(1.00, 0.00, -0.00, -1.00, 737.2, 393.5)"> </text><text xml:space="preserve" font-family="Avenir-Medium,Avenir" font-size="24.0" fill="#000000" transform="matrix(1.00, 0.00, -0.00, -1.00, 747.7, 393.5)">S</text><text xml:space="preserve" font-family="Avenir-Medium,Avenir" font-size="24.0" fill="#000000" transform="matrix(1.00, 0.00, -0.00, -1.00, 764.9, 393.5)">O</text><text xml:space="preserve" font-family="Avenir-Medium,Avenir" font-size="24.0" fill="#000000" transform="matrix(1.00, 0.00, -0.00, -1.00, 788.7, 393.5)">N</text><text xml:space="preserve" font-family="Avenir-Medium,Avenir" font-size="24.0" fill="#000000" transform="matrix(1.00, 0.00, -0.00, -1.00, 811.6, 393.5)"> </text><text xml:space="preserve" font-family="LucidaGrande-Bold,Lucida Grande" font-weight="bold" font-size="23.5" fill="#646363" transform="matrix(1.00, 0.00, -0.00, -1.00, 56.0, 360.2)">‣</text><text xml:space="preserve" font-family="Avenir-Medium,Avenir" font-size="24.0" fill="#000000" transform="matrix(1.00, 0.00, -0.00, -1.00, 80.8, 360.5)">P</text><text xml:space="preserve" font-family="Avenir-Medium,Avenir" font-size="24.0" fill="#000000" transform="matrix(1.00, 0.00, -0.00, -1.00, 98.9, 360.5)">E</text><text xml:space="preserve" font-family="Avenir-Medium,Avenir" font-size="24.0" fill="#000000" transform="matrix(1.00, 0.00, -0.00, -1.00, 117.4, 360.5)">R</text><text xml:space="preserve" font-family="Avenir-Medium,Avenir" font-size="24.0" fill="#000000" transform="matrix(1.00, 0.00, -0.00, -1.00, 135.9, 360.5)">S</text><text xml:space="preserve" font-family="Avenir-Medium,Avenir" font-size="24.0" fill="#000000" transform="matrix(1.00, 0.00, -0.00, -1.00, 153.1, 360.5)">O</text><text xml:space="preserve" font-family="Avenir-Medium,Avenir" font-size="24.0" fill="#000000" transform="matrix(1.00, 0.00, -0.00, -1.00, 176.9, 360.5)">N</text><text xml:space="preserve" font-family="Avenir-Medium,Avenir" font-size="24.0" fill="#000000" transform="matrix(1.00, 0.00, -0.00, -1.00, 199.8, 360.5)">N</text><text xml:space="preserve" font-family="Avenir-Medium,Avenir" font-size="24.0" fill="#000000" transform="matrix(1.00, 0.00, -0.00, -1.00, 222.8, 360.5)">A</text><text xml:space="preserve" font-family="Avenir-Medium,Avenir" font-size="24.0" fill="#000000" transform="matrix(1.00, 0.00, -0.00, -1.00, 243.5, 360.5)">L</text><text xml:space="preserve" font-family="Avenir-Medium,Avenir" font-size="24.0" fill="#000000" transform="matrix(1.00, 0.00, -0.00, -1.00, 259.8, 360.5)">I</text><text xml:space="preserve" font-family="Avenir-Medium,Avenir" font-size="24.0" fill="#000000" transform="matrix(1.00, 0.00, -0.00, -1.00, 270.3, 360.5)">S</text><text xml:space="preserve" font-family="Avenir-Medium,Avenir" font-size="24.0" fill="#000000" transform="matrix(1.00, 0.00, -0.00, -1.00, 287.5, 360.5)">A</text><text xml:space="preserve" font-family="Avenir-Medium,Avenir" font-size="24.0" fill="#000000" transform="matrix(1.00, 0.00, -0.00, -1.00, 306.0, 360.5)">T</text><text xml:space="preserve" font-family="Avenir-Medium,Avenir" font-size="24.0" fill="#000000" transform="matrix(1.00, 0.00, -0.00, -1.00, 323.6, 360.5)">I</text><text xml:space="preserve" font-family="Avenir-Medium,Avenir" font-size="24.0" fill="#000000" transform="matrix(1.00, 0.00, -0.00, -1.00, 334.1, 360.5)">O</text><text xml:space="preserve" font-family="Avenir-Medium,Avenir" font-size="24.0" fill="#000000" transform="matrix(1.00, 0.00, -0.00, -1.00, 358.0, 360.5)">N</text><text xml:space="preserve" font-family="Avenir-Medium,Avenir" font-size="24.0" fill="#000000" transform="matrix(1.00, 0.00, -0.00, -1.00, 380.9, 360.5)"> </text><text xml:space="preserve" font-family="Avenir-Medium,Avenir" font-size="24.0" fill="#000000" transform="matrix(1.00, 0.00, -0.00, -1.00, 391.4, 360.5)">D</text><text xml:space="preserve" font-family="Avenir-Medium,Avenir" font-size="24.0" fill="#000000" transform="matrix(1.00, 0.00, -0.00, -1.00, 413.0, 360.5)">E</text><text xml:space="preserve" font-family="Avenir-Medium,Avenir" font-size="24.0" fill="#000000" transform="matrix(1.00, 0.00, -0.00, -1.00, 431.5, 360.5)"> </text><text xml:space="preserve" font-family="Avenir-Medium,Avenir" font-size="24.0" fill="#000000" transform="matrix(1.00, 0.00, -0.00, -1.00, 442.0, 360.5)">L</text><text xml:space="preserve" font-family="Avenir-Medium,Avenir" font-size="24.0" fill="#000000" transform="matrix(1.00, 0.00, -0.00, -1.00, 455.7, 360.5)">’</text><text xml:space="preserve" font-family="Avenir-Medium,Avenir" font-size="24.0" fill="#000000" transform="matrix(1.00, 0.00, -0.00, -1.00, 466.2, 360.5)">A</text><text xml:space="preserve" font-family="Avenir-Medium,Avenir" font-size="24.0" fill="#000000" transform="matrix(1.00, 0.00, -0.00, -1.00, 486.9, 360.5)">P</text><text xml:space="preserve" font-family="Avenir-Medium,Avenir" font-size="24.0" fill="#000000" transform="matrix(1.00, 0.00, -0.00, -1.00, 505.0, 360.5)">P</text><text xml:space="preserve" font-family="AvenirNext-Bold,Avenir Next" font-weight="bold" font-size="24.0" fill="#000000" transform="matrix(1.00, 0.00, -0.00, -1.00, 80.9, 527.8)">P</text><text xml:space="preserve" font-family="AvenirNext-Bold,Avenir Next" font-weight="bold" font-size="24.0" fill="#000000" transform="matrix(1.00, 0.00, -0.00, -1.00, 100.1, 527.8)">O</text><text xml:space="preserve" font-family="AvenirNext-Bold,Avenir Next" font-weight="bold" font-size="24.0" fill="#000000" transform="matrix(1.00, 0.00, -0.00, -1.00, 124.4, 527.8)">S</text><text xml:space="preserve" font-family="AvenirNext-Bold,Avenir Next" font-weight="bold" font-size="24.0" fill="#000000" transform="matrix(1.00, 0.00, -0.00, -1.00, 142.4, 527.8)">S</text><text xml:space="preserve" font-family="AvenirNext-Bold,Avenir Next" font-weight="bold" font-size="24.0" fill="#000000" transform="matrix(1.00, 0.00, -0.00, -1.00, 160.5, 527.8)">I</text><text xml:space="preserve" font-family="AvenirNext-Bold,Avenir Next" font-weight="bold" font-size="24.0" fill="#000000" transform="matrix(1.00, 0.00, -0.00, -1.00, 171.9, 527.8)">B</text><text xml:space="preserve" font-family="AvenirNext-Bold,Avenir Next" font-weight="bold" font-size="24.0" fill="#000000" transform="matrix(1.00, 0.00, -0.00, -1.00, 191.7, 527.8)">I</text><text xml:space="preserve" font-family="AvenirNext-Bold,Avenir Next" font-weight="bold" font-size="24.0" fill="#000000" transform="matrix(1.00, 0.00, -0.00, -1.00, 203.2, 527.8)">L</text><text xml:space="preserve" font-family="AvenirNext-Bold,Avenir Next" font-weight="bold" font-size="24.0" fill="#000000" transform="matrix(1.00, 0.00, -0.00, -1.00, 219.7, 527.8)">I</text><text xml:space="preserve" font-family="AvenirNext-Bold,Avenir Next" font-weight="bold" font-size="24.0" fill="#000000" transform="matrix(1.00, 0.00, -0.00, -1.00, 231.1, 527.8)">T</text><text xml:space="preserve" font-family="AvenirNext-Bold,Avenir Next" font-weight="bold" font-size="24.0" fill="#000000" transform="matrix(1.00, 0.00, -0.00, -1.00, 248.9, 527.8)">É</text><text xml:space="preserve" font-family="AvenirNext-Bold,Avenir Next" font-weight="bold" font-size="24.0" fill="#000000" transform="matrix(1.00, 0.00, -0.00, -1.00, 267.3, 527.8)">S</text><text xml:space="preserve" font-family="AvenirNext-Bold,Avenir Next" font-weight="bold" font-size="24.0" fill="#000000" transform="matrix(1.00, 0.00, -0.00, -1.00, 285.3, 527.8)"> </text><text xml:space="preserve" font-family="AvenirNext-Bold,Avenir Next" font-weight="bold" font-size="24.0" fill="#000000" transform="matrix(1.00, 0.00, -0.00, -1.00, 295.2, 527.8)">F</text><text xml:space="preserve" font-family="AvenirNext-Bold,Avenir Next" font-weight="bold" font-size="24.0" fill="#000000" transform="matrix(1.00, 0.00, -0.00, -1.00, 312.9, 527.8)">U</text><text xml:space="preserve" font-family="AvenirNext-Bold,Avenir Next" font-weight="bold" font-size="24.0" fill="#000000" transform="matrix(1.00, 0.00, -0.00, -1.00, 334.4, 527.8)">T</text><text xml:space="preserve" font-family="AvenirNext-Bold,Avenir Next" font-weight="bold" font-size="24.0" fill="#000000" transform="matrix(1.00, 0.00, -0.00, -1.00, 352.2, 527.8)">U</text><text xml:space="preserve" font-family="AvenirNext-Bold,Avenir Next" font-weight="bold" font-size="24.0" fill="#000000" transform="matrix(1.00, 0.00, -0.00, -1.00, 373.7, 527.8)">R</text><text xml:space="preserve" font-family="AvenirNext-Bold,Avenir Next" font-weight="bold" font-size="24.0" fill="#000000" transform="matrix(1.00, 0.00, -0.00, -1.00, 393.5, 527.8)">E</text><text xml:space="preserve" font-family="AvenirNext-Bold,Avenir Next" font-weight="bold" font-size="24.0" fill="#000000" transform="matrix(1.00, 0.00, -0.00, -1.00, 411.9, 527.8)">S</text><text xml:space="preserve" font-family="Avenir-Light,Avenir" font-size="18.0" fill="#000000" transform="matrix(1.00, 0.00, -0.00, -1.00, 970.3, 21.1)">7</text><text xml:space="preserve" font-family="Avenir-Light,Avenir" font-size="18.0" fill="#000000" transform="matrix(1.00, 0.00, -0.00, -1.00, 979.7, 21.1)">/</text><text xml:space="preserve" font-family="Avenir-Light,Avenir" font-size="18.0" fill="#000000" transform="matrix(1.00, 0.00, -0.00, -1.00, 986.3, 21.1)">8</text><image xlink:href="../../69BB1A0B-65D1-4BF8-B1E7-C23CB3BAB16D/assets/8F8A0142E93AFE0F2F6B6C26C0DDF7A6.png" width="452.00" height="110.00" transform="matrix(0.45, 0.00, -0.00, -0.45, 775.8, 723.8)"></image></g></svg>