<?xml version="1.0" standalone="no"?>
<!DOCTYPE svg PUBLIC "-//W3C//DTD SVG 1.1//EN" 
  "http://www.w3.org/Graphics/SVG/1.1/DTD/svg11.dtd">
<svg version="1.0" id="Layer_1" xmlns="http://www.w3.org/2000/svg" xmlns:xlink="http://www.w3.org/1999/xlink" x="0px" y="0px" width="26px" height="26px" viewBox="0 0 26 26" style="enable-background:new 0 0 26 26;" xml:space="preserve">
	<path d="M25.636,8.056l-1.682-1.682C23.42,6.814,22.746,7.089,22,7.089c-1.706,0-3.089-1.383-3.089-3.089
		c0-0.746,0.274-1.42,0.715-1.954l-1.659-1.659c-0.389-0.391-1.024-0.391-1.414-0.001L13.78,3.159
		c0.077,0.023,0.15,0.058,0.212,0.119l0.34,0.34c0.195,0.195,0.195,0.512,0,0.707c-0.098,0.098-0.226,0.146-0.354,0.146
		s-0.256-0.049-0.354-0.146l-0.34-0.34c-0.062-0.062-0.096-0.135-0.119-0.212L0.354,16.584c-0.389,0.39-0.389,1.025,0.001,1.415
		l1.656,1.656C2.549,19.197,3.238,18.911,4,18.911c1.706,0,3.089,1.383,3.089,3.089c0,0.762-0.286,1.451-0.744,1.989l1.679,1.679
		c0.39,0.39,1.024,0.39,1.414,0l12.779-12.779c-0.035-0.021-0.073-0.039-0.104-0.07l-0.34-0.34c-0.195-0.195-0.195-0.512,0-0.707
		c0.195-0.195,0.512-0.195,0.707,0l0.34,0.34c0.031,0.031,0.049,0.068,0.069,0.105l2.747-2.747
		C26.026,9.079,26.026,8.444,25.636,8.056z M16.028,6.023c-0.098,0.098-0.226,0.146-0.354,0.146S15.418,6.12,15.32,6.023l-0.34-0.34
		c-0.195-0.195-0.195-0.512,0-0.707s0.512-0.195,0.707,0l0.34,0.34C16.224,5.512,16.224,5.828,16.028,6.023z M17.727,7.723
		c-0.098,0.098-0.226,0.146-0.354,0.146c-0.128,0-0.256-0.049-0.353-0.146l-0.34-0.34c-0.195-0.195-0.195-0.512,0-0.707
		s0.512-0.195,0.707,0l0.34,0.34C17.922,7.211,17.922,7.527,17.727,7.723z M19.424,9.421c-0.098,0.098-0.226,0.146-0.354,0.146
		s-0.256-0.049-0.354-0.146l-0.34-0.34c-0.195-0.195-0.195-0.512,0-0.707s0.512-0.195,0.707,0l0.34,0.34
		C19.619,8.909,19.619,9.226,19.424,9.421z M21.121,11.12c-0.098,0.097-0.226,0.146-0.354,0.146s-0.257-0.049-0.354-0.146
		l-0.339-0.34c-0.194-0.196-0.194-0.513,0.001-0.708c0.195-0.193,0.513-0.194,0.708,0.001l0.339,0.34
		C21.316,10.608,21.316,10.925,21.121,11.12z" fill="white"></path>
</svg>